<?xml version="1.0" standalone="no"?>
<!DOCTYPE svg PUBLIC "-//W3C//DTD SVG 20010904//EN"
 "http://www.w3.org/TR/2001/REC-SVG-20010904/DTD/svg10.dtd">
<svg version="1.0" xmlns="http://www.w3.org/2000/svg"
 width="512.000000pt" height="512.000000pt" viewBox="0 0 512.000000 512.000000"
 preserveAspectRatio="xMidYMid meet">
<metadata>
Created by potrace 1.14, written by Peter Selinger 2001-2017
</metadata>
<g transform="translate(0.000000,512.000000) scale(0.100000,-0.100000)"
fill="#000000" stroke="none">
<path d="M4679 4899 c-13 -15 -27 -25 -32 -22 -6 3 -7 1 -3 -5 4 -7 2 -12 -3
-12 -6 0 -10 -6 -8 -12 1 -7 -6 -12 -15 -12 -10 1 -17 -1 -16 -5 2 -19 -3 -31
-12 -26 -5 3 -10 -1 -10 -9 0 -9 -6 -15 -12 -13 -7 1 -12 -2 -12 -8 1 -5 -7
-19 -19 -30 -11 -11 -16 -14 -12 -6 5 9 4 12 -3 7 -7 -4 -12 -12 -12 -17 0 -6
-21 -30 -46 -54 -26 -24 -43 -48 -40 -53 3 -6 -3 -13 -14 -17 -11 -3 -20 -11
-20 -16 0 -6 -5 -7 -12 -3 -8 5 -9 2 -5 -9 5 -12 -1 -19 -19 -23 -17 -4 -22
-9 -14 -14 9 -6 6 -10 -9 -15 -12 -3 -19 -10 -16 -15 3 -4 -3 -14 -12 -21 -14
-12 -16 -12 -8 0 5 10 4 12 -3 7 -7 -4 -12 -13 -12 -21 0 -8 -5 -17 -12 -21
-7 -5 -9 -2 -4 7 4 8 1 6 -7 -3 -8 -10 -20 -18 -26 -18 -7 0 -9 -5 -6 -11 8
-12 -25 -40 -38 -32 -5 3 -6 12 -3 20 3 8 2 12 -3 9 -11 -7 -51 28 -51 44 0 7
-3 11 -6 7 -7 -6 -13 -1 -79 60 -25 23 -45 39 -45 37 0 -3 -7 2 -16 10 -8 9
-20 14 -25 11 -5 -4 -9 4 -10 17 0 13 -3 17 -6 10 -3 -8 -11 -5 -25 10 -11 13
-17 16 -13 8 3 -8 -2 -5 -11 8 -9 12 -22 22 -28 22 -6 0 -29 12 -50 26 -21 15
-36 22 -32 15 4 -6 2 -11 -3 -11 -6 0 -11 7 -11 16 0 8 -4 12 -10 9 -5 -3 -10
1 -10 11 0 13 -3 14 -15 4 -11 -9 -15 -9 -15 -1 0 7 -4 9 -10 6 -5 -3 -10 -3
-10 2 0 9 -91 49 -102 45 -5 -1 -8 3 -8 9 0 8 -5 8 -15 -1 -12 -10 -16 -9 -21
4 -3 9 -10 13 -15 10 -5 -3 -9 -1 -9 4 0 5 -6 9 -12 10 -39 5 -55 9 -75 20
-28 15 -36 15 -27 0 5 -9 2 -9 -9 1 -9 7 -17 10 -17 6 0 -4 -7 -2 -15 5 -8 7
-15 9 -15 5 0 -4 -12 1 -27 10 -25 17 -26 17 -19 0 5 -14 3 -15 -6 -8 -7 6
-23 9 -35 8 -13 -1 -23 4 -23 11 0 14 -31 13 -45 -1 -5 -6 -9 -8 -8 -6 2 2 -2
10 -9 18 -9 11 -14 11 -30 -4 -11 -10 -19 -13 -18 -8 5 21 -1 25 -19 15 -11
-5 -22 -6 -25 -2 -3 5 -15 8 -28 7 -13 -1 -29 3 -37 9 -11 8 -13 8 -7 -1 4 -8
2 -13 -6 -13 -8 0 -20 6 -27 13 -11 10 -12 9 -6 -2 6 -10 2 -11 -15 -6 -17 5
-21 4 -15 -5 5 -8 4 -11 -2 -7 -16 10 -63 16 -63 8 0 -4 -25 -6 -55 -5 -30 1
-52 -2 -50 -6 6 -9 -42 -3 -58 7 -6 4 -7 1 -2 -7 6 -9 2 -10 -15 -5 -17 5 -21
4 -15 -5 5 -9 4 -11 -3 -6 -21 13 -52 15 -52 4 0 -7 -4 -7 -13 1 -8 6 -17 7
-21 3 -4 -4 -11 -7 -14 -8 -4 0 -15 -4 -25 -8 -9 -5 -29 -6 -42 -4 -21 4 -23
3 -14 -9 10 -11 8 -12 -14 -4 -17 7 -28 7 -32 0 -4 -5 -12 -9 -18 -8 -13 2
-42 -7 -71 -23 -14 -7 -21 -6 -27 4 -7 11 -9 11 -9 -1 0 -7 -6 -11 -15 -7 -8
3 -15 1 -15 -5 0 -6 -4 -7 -10 -4 -5 3 -10 1 -10 -6 0 -7 -3 -9 -7 -6 -3 4
-13 1 -21 -6 -13 -9 -14 -9 -8 1 4 6 2 12 -3 12 -6 0 -11 -8 -11 -17 0 -14 -2
-15 -9 -4 -6 9 -11 10 -15 3 -4 -6 -13 -9 -20 -6 -7 3 -18 -2 -25 -10 -7 -9
-28 -18 -47 -22 -19 -3 -32 -9 -30 -13 2 -3 -8 -7 -22 -8 -15 0 -28 -6 -30
-12 -2 -5 -10 -7 -19 -4 -12 5 -14 3 -8 -7 6 -10 4 -12 -9 -7 -9 4 -14 3 -11
-2 3 -5 0 -13 -7 -17 -14 -9 -57 -12 -56 -4 2 20 -4 29 -17 24 -14 -6 -20 6
-16 29 1 5 -2 6 -7 3 -4 -2 -24 10 -44 29 -20 18 -39 31 -42 28 -3 -3 -12 2
-21 11 -9 9 -23 16 -31 16 -8 0 -19 10 -24 23 -5 12 -9 16 -9 9 -1 -8 -9 -10
-25 -6 -16 4 -25 1 -29 -10 -4 -9 -13 -13 -21 -10 -10 4 -14 0 -12 -13 2 -10
-2 -21 -8 -25 -7 -5 -6 -8 4 -8 13 0 13 -1 0 -10 -13 -8 -12 -10 3 -10 10 0
15 -4 12 -10 -3 -5 -1 -10 5 -10 6 0 9 -4 6 -9 -6 -9 36 -31 62 -31 15 0 15
-2 2 -10 -13 -8 -13 -10 1 -10 9 0 20 -7 23 -16 3 -8 10 -13 15 -9 6 3 8 -4 6
-16 -4 -17 -2 -19 10 -9 10 8 15 9 15 2 0 -6 9 -13 19 -17 19 -6 19 -7 3 -24
-9 -10 -19 -18 -22 -17 -3 0 -14 -5 -25 -11 -11 -6 -24 -11 -28 -11 -5 0 -12
-4 -15 -8 -4 -4 0 -3 8 1 13 8 13 7 1 -9 -11 -13 -16 -14 -22 -4 -7 10 -9 9
-9 -5 0 -9 -5 -16 -12 -15 -7 2 -12 -2 -13 -9 0 -16 -15 -29 -15 -14 0 8 -5 7
-16 -3 -8 -9 -19 -14 -24 -11 -5 3 -12 0 -16 -6 -4 -8 -3 -9 4 -5 7 4 12 3 12
-2 0 -5 -9 -12 -21 -15 -14 -4 -18 -10 -13 -19 4 -7 3 -10 -1 -5 -5 4 -20 -3
-33 -15 -14 -13 -22 -17 -18 -11 5 9 2 11 -8 7 -9 -3 -13 -10 -10 -15 3 -5 0
-9 -6 -9 -6 0 -8 -5 -4 -11 4 -7 1 -10 -7 -7 -7 2 -26 -9 -43 -26 -16 -17 -25
-24 -20 -16 7 13 6 13 -9 1 -10 -8 -15 -16 -12 -19 6 -7 -37 -38 -48 -34 -5 1
-6 -2 -2 -8 3 -5 1 -10 -5 -10 -6 0 -8 -5 -5 -10 4 -6 3 -10 -2 -9 -20 3 -34
-2 -28 -11 3 -5 -1 -10 -9 -10 -10 0 -13 -6 -9 -17 3 -10 3 -15 -1 -11 -9 8
-72 -53 -68 -65 1 -5 -2 -6 -7 -3 -5 4 -18 -7 -27 -24 -17 -28 -27 -34 -47
-31 -4 0 -7 -5 -7 -12 -1 -31 -17 -41 -49 -27 -17 7 -31 20 -31 29 0 14 -2 14
-10 1 -8 -13 -10 -12 -10 3 0 10 -4 15 -10 12 -5 -3 -10 -1 -10 4 0 6 -7 11
-15 11 -8 0 -15 5 -15 10 0 6 -7 10 -15 10 -8 0 -15 7 -15 16 0 8 -4 13 -9 9
-5 -3 -12 4 -16 14 -4 12 -12 18 -21 14 -9 -3 -14 1 -14 12 0 9 -5 13 -10 10
-6 -3 -10 -1 -10 5 0 6 -4 8 -10 5 -9 -6 -14 8 -11 28 1 5 -3 6 -7 3 -5 -3
-20 3 -32 14 -12 11 -31 22 -41 25 -11 4 -17 11 -14 16 6 8 -16 14 -38 10 -5
-1 -6 3 -2 9 3 5 2 10 -3 10 -4 0 -18 9 -30 21 -26 23 -59 32 -67 18 -4 -5
-11 -7 -16 -4 -5 3 -6 -2 -2 -11 4 -12 3 -15 -5 -10 -9 5 -11 -3 -7 -31 3 -21
9 -39 15 -41 5 -2 10 -8 10 -13 0 -12 37 -49 50 -49 5 0 10 -5 10 -11 0 -5 5
-7 10 -4 6 3 5 -6 -2 -20 -7 -15 -14 -22 -16 -16 -2 6 -10 11 -18 11 -8 0 -14
4 -14 8 0 8 -14 12 -52 13 -10 0 -18 4 -18 7 0 4 -10 9 -22 9 -13 1 -24 7 -26
13 -2 5 -8 8 -13 4 -5 -3 -9 0 -9 6 0 6 -5 8 -12 4 -8 -5 -7 -1 1 10 13 16 13
17 -5 14 -10 -1 -18 2 -17 8 1 7 -8 9 -24 6 -17 -3 -24 -1 -19 6 3 6 2 13 -3
17 -6 3 -8 12 -5 20 4 10 0 13 -15 10 -12 -2 -19 0 -16 5 3 5 1 11 -5 15 -5 3
-10 0 -10 -7 0 -10 -2 -11 -8 0 -5 7 -16 10 -24 7 -8 -3 -23 1 -32 11 -16 15
-18 14 -40 -11 -14 -16 -22 -35 -18 -43 3 -9 1 -13 -5 -9 -6 4 -14 0 -17 -9
-3 -8 -2 -12 4 -9 6 4 9 -3 6 -17 -2 -13 3 -35 11 -50 11 -22 11 -28 1 -28 -9
0 -9 -3 2 -9 8 -6 19 -7 25 -3 5 3 4 -2 -4 -11 -10 -13 -10 -17 -1 -17 7 0 10
-6 7 -14 -3 -8 1 -17 8 -20 8 -3 12 -12 9 -21 -3 -8 -1 -15 5 -15 6 0 11 -5
11 -11 0 -5 -6 -7 -12 -3 -7 4 -5 -2 4 -13 10 -11 18 -26 18 -34 0 -9 7 -24
16 -35 8 -10 12 -12 8 -4 -4 8 -3 12 1 8 5 -5 10 -20 11 -35 2 -14 8 -29 14
-33 7 -4 11 -11 11 -16 -2 -19 11 -44 21 -44 6 0 8 -3 5 -7 -4 -3 1 -15 10
-26 11 -12 12 -17 4 -12 -9 5 -8 -2 5 -24 10 -17 22 -31 27 -31 5 0 4 -6 -2
-14 -9 -11 -8 -15 4 -20 9 -3 13 -10 10 -16 -3 -5 2 -10 12 -10 15 0 16 -2 3
-10 -8 -5 -10 -10 -5 -10 6 0 11 -15 11 -32 0 -38 30 -101 44 -93 6 4 10 1 10
-5 0 -6 5 -8 10 -5 6 3 13 -1 16 -10 4 -9 13 -14 21 -11 9 4 11 2 6 -6 -10
-18 -11 -48 0 -41 5 3 8 -3 7 -13 -4 -33 0 -45 10 -39 5 3 7 0 4 -8 -3 -8 1
-21 9 -28 8 -8 13 -22 11 -32 -1 -9 2 -15 6 -12 5 3 11 1 15 -5 3 -5 2 -10 -4
-10 -5 0 -8 -9 -6 -19 3 -14 -1 -18 -11 -14 -8 3 -14 2 -13 -3 4 -25 -2 -54
-11 -49 -6 3 -7 -1 -4 -9 3 -9 2 -16 -3 -16 -5 0 -10 -10 -10 -22 -1 -13 -6
-24 -12 -26 -5 -2 -7 -15 -5 -30 3 -15 2 -23 -2 -19 -8 8 -44 -77 -44 -105 0
-10 -5 -18 -11 -18 -5 0 -8 -3 -6 -7 3 -5 -1 -13 -7 -19 -9 -8 -17 -8 -31 2
-14 10 -15 14 -4 14 12 0 12 2 -1 9 -8 6 -18 7 -22 5 -5 -3 -7 0 -6 8 2 7 -3
12 -9 11 -7 -2 -13 3 -13 11 0 22 -35 25 -60 6 -13 -10 -31 -15 -41 -13 -11 3
-19 0 -19 -6 0 -5 -12 -17 -26 -24 -18 -9 -23 -16 -15 -21 9 -6 9 -11 0 -22
-9 -11 -7 -14 9 -14 16 0 20 -4 15 -17 -4 -9 -2 -14 3 -11 5 3 19 -5 32 -18
12 -13 20 -24 16 -24 -3 0 -1 -6 5 -13 6 -8 7 -18 3 -22 -4 -5 0 -6 9 -3 12 5
15 1 11 -19 -3 -15 1 -29 9 -34 10 -6 10 -9 2 -9 -7 0 -13 -5 -13 -11 0 -5 5
-7 11 -3 8 5 9 2 1 -11 -7 -14 -6 -23 5 -33 12 -12 12 -16 1 -23 -10 -7 -8 -9
6 -9 12 0 16 -5 13 -15 -4 -8 -2 -17 4 -21 6 -3 8 -12 5 -20 -3 -7 -1 -16 4
-19 8 -5 7 -80 0 -80 -1 0 -3 -12 -4 -27 0 -14 -4 -30 -8 -34 -5 -4 -8 -12 -8
-18 0 -6 5 -4 10 4 5 8 10 11 10 6 0 -5 -8 -18 -18 -29 -9 -11 -12 -17 -5 -14
18 11 22 -16 5 -35 -8 -10 -11 -18 -5 -18 5 0 10 -7 10 -15 0 -8 -5 -15 -10
-15 -5 0 -4 -6 2 -13 6 -8 8 -16 5 -19 -11 -11 -14 -57 -4 -63 7 -4 7 -11 2
-18 -5 -7 -8 -32 -7 -57 1 -25 -3 -51 -8 -58 -7 -9 -5 -11 9 -6 18 7 18 6 -1
-16 -11 -13 -14 -20 -6 -15 9 5 12 3 9 -6 -3 -8 -1 -22 4 -33 7 -13 7 -16 -1
-12 -12 8 -15 -6 -4 -18 4 -4 8 -19 9 -34 1 -15 2 -27 3 -27 1 0 4 -13 6 -30
3 -23 2 -26 -6 -15 -9 12 -9 11 -4 -5 4 -11 8 -31 9 -45 1 -14 7 -33 13 -44 6
-11 7 -32 3 -52 -4 -19 -4 -32 0 -29 5 3 11 1 15 -5 3 -5 0 -10 -7 -10 -9 0
-9 -3 2 -10 13 -9 13 -11 0 -20 -12 -8 -12 -10 5 -10 17 0 17 -2 5 -10 -12 -7
-12 -10 -1 -10 7 0 11 -6 7 -15 -3 -8 -1 -15 5 -15 6 0 7 -5 4 -10 -4 -6 -1
-18 7 -27 11 -14 11 -16 -2 -8 -9 5 -7 -1 5 -15 11 -13 14 -20 6 -15 -9 5 -8
0 3 -17 10 -15 14 -33 10 -43 -5 -13 -4 -16 4 -11 11 6 18 -20 13 -47 -1 -5 4
-5 10 -1 9 5 10 2 6 -9 -3 -9 -2 -19 4 -23 6 -3 8 -12 5 -20 -3 -8 -2 -14 3
-14 5 0 12 -11 15 -25 4 -14 11 -25 17 -25 6 0 7 -5 4 -11 -4 -6 1 -17 11 -25
11 -9 12 -12 4 -8 -13 7 -13 5 -1 -9 7 -9 10 -17 5 -17 -5 0 1 -7 13 -15 12
-9 20 -22 17 -29 -3 -7 1 -20 9 -27 7 -8 22 -33 32 -56 13 -30 22 -40 34 -35
13 5 14 3 5 -9 -9 -11 -9 -17 1 -26 7 -6 16 -10 19 -7 3 2 4 1 1 -3 -3 -3 5
-18 17 -31 13 -14 16 -22 8 -18 -9 5 -8 2 2 -7 10 -8 18 -18 18 -24 0 -5 14
-19 30 -31 17 -13 30 -27 30 -33 0 -6 6 -17 13 -24 6 -8 18 -21 25 -30 7 -8
18 -12 24 -9 7 4 8 2 4 -4 -4 -7 -2 -12 3 -12 6 0 10 -3 10 -7 -3 -19 2 -34 9
-29 5 3 19 -6 30 -19 12 -14 28 -25 34 -25 9 0 8 -3 -2 -10 -12 -8 -11 -10 8
-10 13 0 22 -6 22 -16 0 -10 5 -14 16 -10 8 3 12 2 9 -4 -3 -6 -1 -10 5 -10 6
0 8 -5 4 -12 -4 -6 -3 -8 3 -5 6 4 22 -4 34 -18 13 -13 32 -25 42 -25 10 0 16
-3 14 -7 -3 -5 1 -14 9 -21 11 -10 14 -10 15 0 0 7 4 3 10 -10 5 -13 13 -21
18 -17 5 3 21 -6 35 -20 14 -14 35 -25 46 -25 14 0 19 -4 14 -12 -5 -8 -2 -9
9 -5 10 3 17 2 17 -4 0 -6 5 -7 10 -4 6 3 10 2 10 -2 0 -14 68 -46 85 -39 9 3
13 2 10 -4 -3 -6 1 -10 9 -10 9 0 16 -4 16 -8 0 -9 15 -12 57 -13 13 -1 21 -4
18 -9 -2 -4 7 -12 20 -18 19 -9 25 -9 25 1 0 6 5 4 11 -5 5 -10 16 -15 24 -12
8 4 15 1 15 -6 0 -9 4 -9 13 -2 14 11 41 -10 29 -24 -4 -5 1 -2 11 5 13 10 17
11 17 1 0 -9 4 -9 17 1 11 10 14 10 9 1 -4 -7 -2 -12 4 -12 6 0 8 -6 4 -12 -5
-10 -4 -10 6 -1 11 10 18 9 34 -5 11 -9 16 -11 12 -4 -10 17 9 15 27 -2 11
-11 17 -12 27 -3 9 8 11 8 7 1 -4 -7 0 -15 9 -18 10 -4 13 -2 8 7 -6 9 -4 9 8
-1 13 -10 18 -10 24 -1 5 9 11 7 21 -7 12 -16 15 -17 23 -4 7 11 12 12 17 4 5
-6 24 -11 43 -10 19 1 46 -5 60 -13 18 -12 22 -12 16 -3 -7 11 -4 12 11 3 14
-7 24 -7 33 2 10 9 11 9 6 0 -3 -6 -2 -14 4 -18 5 -3 10 -2 10 2 0 5 9 9 19 9
11 0 18 -3 16 -7 -3 -3 16 -5 41 -3 31 2 43 0 38 -8 -4 -7 -3 -8 4 -4 20 12
52 15 52 5 0 -6 8 -5 21 1 17 9 23 8 36 -7 8 -10 12 -12 8 -5 -3 6 -1 13 4 13
6 1 17 2 24 3 6 1 17 -2 24 -6 7 -6 15 -3 21 8 8 15 9 15 15 -1 4 -9 11 -13
17 -10 6 4 8 10 5 15 -3 4 4 6 15 3 11 -3 17 -9 14 -14 -3 -5 2 -6 10 -3 9 3
16 11 16 16 0 6 8 4 17 -3 11 -9 14 -10 9 -2 -5 10 1 11 25 6 26 -5 30 -3 24
8 -7 12 -6 12 7 1 13 -10 17 -10 21 0 4 10 6 10 6 -1 1 -8 8 -5 19 10 15 17
21 19 27 9 5 -8 4 -11 -3 -6 -6 3 -13 2 -17 -4 -9 -14 18 -13 33 2 7 7 12 8
12 4 0 -5 8 -2 17 5 14 12 15 12 9 1 -7 -11 -4 -12 13 -3 12 7 26 9 31 6 6 -3
10 -2 10 4 0 5 9 8 20 6 11 -2 20 0 20 5 0 4 11 7 25 5 14 -1 25 2 25 7 0 5 4
7 9 4 12 -8 42 4 36 14 -3 4 9 6 25 5 17 -1 30 1 30 6 0 5 7 9 15 9 8 0 15 6
15 13 0 8 3 8 8 2 11 -16 30 -12 46 10 9 11 16 16 16 11 0 -5 8 -2 17 5 11 10
14 10 9 2 -4 -7 -2 -13 3 -13 6 0 11 5 11 11 0 6 7 8 16 5 8 -3 12 -2 9 4 -3
6 -1 10 4 10 20 0 26 3 39 19 10 12 12 12 6 1 -7 -13 -5 -13 9 -1 9 7 17 10
17 5 0 -5 5 -2 10 6 5 8 17 15 27 15 10 0 17 6 16 12 -2 8 5 11 20 9 14 -2 29
4 40 18 10 11 16 15 12 9 -4 -9 -1 -11 10 -7 9 4 14 12 11 19 -3 8 2 11 13 8
10 -2 24 1 32 9 8 7 23 20 33 28 18 13 19 13 11 0 -5 -8 7 0 25 18 19 17 41
32 51 32 9 0 20 7 23 16 3 8 10 12 16 9 5 -3 10 -1 10 4 0 6 6 10 13 8 6 -1
11 5 11 14 -1 11 6 15 22 13 13 -1 23 1 21 4 -2 4 7 17 19 29 15 14 25 17 28
10 3 -8 5 -8 5 1 1 7 6 10 13 6 7 -4 8 -3 4 5 -4 6 0 14 8 17 9 3 13 11 9 17
-3 6 -1 7 5 3 7 -4 24 5 39 21 14 15 23 21 18 13 -4 -8 13 7 38 34 26 26 47
45 47 42 0 -3 8 2 18 12 11 9 17 20 15 24 -2 5 3 8 12 8 8 0 18 7 21 15 4 8
12 15 20 15 8 0 13 4 11 8 -1 5 21 32 50 60 28 27 49 53 46 56 -4 3 -1 6 6 6
7 0 10 4 7 9 -3 5 2 8 12 7 9 0 16 5 14 12 -1 7 5 15 13 18 8 4 15 12 15 20 0
8 3 13 8 11 4 -1 19 8 32 21 21 20 22 22 5 16 -20 -7 -20 -7 0 9 11 8 23 13
27 11 4 -3 5 5 3 16 -2 11 -1 19 3 16 10 -6 32 21 24 29 -4 4 4 2 18 -6 14 -7
31 -12 39 -10 7 1 11 -1 8 -6 -3 -5 6 -13 19 -20 18 -8 22 -8 18 0 -4 7 3 2
15 -10 23 -24 48 -32 35 -11 -4 7 -3 8 4 4 7 -4 12 -13 12 -21 0 -7 7 -16 16
-19 15 -6 15 -4 3 10 -7 9 4 5 25 -9 20 -15 46 -29 57 -32 10 -4 19 -14 19
-23 0 -12 3 -13 12 -4 16 16 29 15 25 0 -1 -7 4 -12 11 -11 6 2 12 -2 12 -8 0
-8 5 -8 15 1 10 8 15 9 15 2 0 -6 7 -9 16 -5 13 5 13 7 2 14 -9 6 -9 9 -1 9 6
0 14 -4 18 -10 3 -5 18 4 34 20 15 17 34 30 41 30 8 0 11 9 8 25 -3 14 -2 28
3 31 4 2 5 12 2 21 -4 11 -3 14 5 9 7 -4 10 -2 7 6 -3 8 7 18 26 25 22 9 30
17 26 27 -4 9 -1 15 6 13 7 -1 11 4 10 11 -2 6 2 12 7 12 6 0 10 5 10 11 0 5
-4 8 -9 5 -9 -6 -4 70 5 86 3 4 0 8 -5 8 -6 0 -11 5 -11 11 0 5 6 7 13 3 6 -4
-1 8 -18 26 -16 18 -24 30 -17 26 11 -7 11 -4 0 13 -7 12 -16 21 -21 21 -4 0
-5 5 -1 12 5 7 2 9 -9 5 -11 -4 -14 -2 -10 9 3 9 -1 14 -12 14 -10 0 -13 5 -9
12 4 6 3 8 -4 4 -6 -3 -18 2 -28 11 -10 10 -21 18 -26 18 -4 0 -9 5 -9 10 -3
16 -38 37 -51 29 -7 -5 -8 -3 -3 6 6 10 4 12 -9 7 -9 -4 -15 -3 -12 1 3 5 -3
16 -13 24 -15 12 -22 13 -31 5 -10 -9 -11 -9 -6 1 4 6 3 12 -3 12 -7 0 -7 8 1
25 6 13 16 21 22 18 6 -4 5 0 -2 9 -10 13 -10 18 -1 24 8 5 9 3 4 -6 -5 -9 -4
-11 3 -6 7 4 12 14 12 22 0 9 5 12 13 8 9 -5 9 -4 0 6 -9 10 -8 16 3 28 8 8
13 21 10 28 -3 8 -2 14 2 14 4 0 15 16 24 35 8 19 11 32 6 29 -6 -4 -3 4 5 17
9 13 17 29 19 34 2 6 6 9 9 8 3 -1 6 4 6 12 0 8 -5 12 -11 9 -6 -3 -3 1 7 9
12 10 15 17 7 22 -8 5 -6 13 6 26 9 10 14 19 9 19 -4 0 -2 7 5 15 7 8 9 15 4
15 -5 0 -2 5 6 10 13 8 13 10 1 10 -11 0 -10 4 5 16 10 8 12 12 4 8 -13 -7
-13 -6 -1 9 8 10 11 20 8 24 -4 3 3 22 15 41 12 20 16 32 10 28 -7 -4 -12 -2
-12 3 0 6 5 11 11 11 6 0 8 7 5 16 -4 9 -1 23 5 30 6 8 9 21 5 29 -3 9 -2 14
3 11 5 -3 11 1 15 9 3 8 1 15 -5 15 -6 0 -6 6 0 19 6 10 7 21 4 25 -3 3 -2 6
4 6 6 0 14 7 17 16 6 15 4 15 -10 3 -16 -13 -16 -12 -5 9 6 12 9 22 5 22 -3 0
-1 7 6 15 7 8 9 15 5 15 -4 0 -2 6 4 14 9 11 9 16 0 22 -8 5 -9 3 -4 -6 6 -9
4 -11 -4 -5 -9 5 -10 10 -2 18 6 6 11 22 11 35 0 16 4 21 13 16 9 -6 9 -4 -1
8 -10 12 -10 18 -1 23 8 6 7 10 -2 16 -9 6 -10 9 -2 9 7 0 10 10 7 26 -3 14
-1 23 5 20 5 -3 7 3 4 14 -3 11 -9 17 -14 14 -5 -3 -9 0 -9 5 0 6 6 11 13 11
7 0 13 9 13 20 0 11 -5 20 -11 20 -5 0 -3 5 5 10 13 9 13 10 0 10 -13 0 -13 1
0 10 13 8 13 10 1 10 -11 0 -10 4 5 16 10 8 14 13 8 10 -15 -8 -25 17 -14 35
5 8 4 19 -2 26 -7 9 -7 13 2 13 10 0 10 3 0 15 -8 9 -8 15 -2 15 7 0 8 10 2
30 -5 19 -5 28 1 25 5 -4 9 -1 9 4 0 6 -4 11 -10 11 -5 0 -10 5 -10 11 0 5 6
7 13 4 6 -4 4 0 -6 8 -16 13 -16 15 -2 21 13 4 14 10 5 26 -6 11 -7 20 -3 20
4 0 2 4 -6 9 -10 7 -11 13 -1 31 7 12 8 20 2 16 -5 -3 -12 5 -14 19 -4 21 -3
23 9 14 11 -9 12 -8 7 5 -3 9 -13 16 -22 16 -13 0 -12 3 4 16 10 8 14 13 8 10
-16 -8 -25 19 -11 33 8 8 8 11 -2 11 -8 0 -11 6 -7 15 3 8 1 15 -4 15 -5 0 -7
7 -4 15 4 8 2 15 -4 15 -6 0 -8 13 -5 31 3 21 1 29 -6 24 -6 -3 -11 -1 -11 4
0 6 6 11 13 11 8 1 7 5 -3 13 -9 7 -17 23 -17 36 -1 13 -7 27 -14 31 -8 6 -8
9 1 15 9 5 9 9 1 14 -6 4 -12 19 -13 33 -1 15 -6 24 -10 22 -4 -3 -8 6 -8 20
0 14 -5 28 -11 31 -6 4 -8 13 -5 21 3 7 -3 18 -12 23 -9 6 -13 11 -8 11 5 0 3
6 -3 14 -6 8 -10 20 -9 27 2 8 -4 13 -12 11 -8 -2 -12 0 -7 4 4 4 -2 18 -14
30 -14 15 -17 24 -9 29 8 5 7 12 -4 23 -8 10 -15 22 -16 27 -1 6 -6 9 -11 8
-5 -2 -8 0 -8 5 4 21 -3 32 -18 32 -15 0 -16 2 -3 10 13 8 12 12 -4 27 -10 10
-15 12 -11 4 6 -10 4 -12 -4 -7 -6 4 -9 11 -6 16 3 5 -2 16 -11 24 -8 9 -12
16 -7 16 4 0 0 5 -10 11 -9 6 -15 14 -12 19 3 4 -2 10 -10 14 -8 3 -15 16 -15
28 0 16 -3 19 -8 10 -6 -9 -14 -1 -28 27 -13 26 -22 35 -27 28 -5 -7 -7 -3 -4
11 3 12 1 20 -4 17 -4 -3 -15 8 -23 24 -9 16 -21 31 -28 34 -10 4 -10 6 0 6 6
1 12 8 12 17 0 14 2 15 17 3 9 -8 14 -9 10 -2 -4 6 0 19 9 27 9 9 11 16 4 16
-6 0 -8 5 -5 10 4 6 11 8 16 5 8 -6 13 9 10 28 -1 5 3 6 8 2 6 -3 15 4 21 15
6 11 15 18 20 15 5 -3 11 4 15 15 4 11 10 18 15 15 4 -3 14 8 21 24 7 16 16
28 19 26 5 -3 25 15 28 28 1 4 5 7 8 6 10 -1 33 35 28 43 -3 4 3 5 12 1 12 -4
15 -3 10 5 -4 7 -2 12 4 12 6 0 8 5 5 10 -3 6 1 10 9 10 9 0 16 6 16 14 0 8 9
18 20 21 11 4 18 11 15 16 -4 5 -1 9 5 9 6 0 9 4 5 9 -3 5 3 12 14 16 11 3 25
12 32 21 10 12 9 13 -7 8 -18 -5 -18 -5 0 6 31 20 55 48 48 56 -4 4 2 4 13 0
11 -4 17 -4 13 -1 -9 9 25 43 36 37 5 -3 7 2 3 11 -3 9 -1 18 6 21 9 3 8 5 -1
5 -10 1 -10 6 -1 24 6 12 8 19 4 15 -11 -11 -45 10 -45 28 0 8 -4 13 -9 9 -6
-3 -15 4 -21 15 -6 12 -18 19 -25 16 -8 -3 -15 2 -17 11 -5 27 -44 22 -69 -8z
m-3959 -773 c0 -3 -4 -8 -10 -11 -5 -3 -10 -1 -10 4 0 6 5 11 10 11 6 0 10 -2
10 -4z m64 -537 c-3 -5 -13 -9 -22 -9 -13 0 -14 -2 -4 -9 11 -7 10 -10 -3 -15
-25 -9 -32 -7 -32 9 0 8 4 15 9 15 4 0 8 6 8 14 0 8 6 16 13 19 15 5 39 -12
31 -24z"/>
<path d="M4625 3780 c3 -5 8 -10 11 -10 2 0 4 5 4 10 0 6 -5 10 -11 10 -5 0
-7 -4 -4 -10z"/>
<path d="M4685 2030 c-3 -6 1 -7 9 -4 18 7 21 14 7 14 -6 0 -13 -4 -16 -10z"/>
<path d="M4830 1319 c0 -5 5 -7 10 -4 6 3 10 8 10 11 0 2 -4 4 -10 4 -5 0 -10
-5 -10 -11z"/>
<path d="M790 856 c0 -2 8 -10 18 -17 15 -13 16 -12 3 4 -13 16 -21 21 -21 13z"/>
</g>
</svg>
